<?xml version="1.0" encoding="UTF-8" standalone="no" ?>
<!DOCTYPE svg PUBLIC "-//W3C//DTD SVG 1.1//EN" "http://www.w3.org/Graphics/SVG/1.1/DTD/svg11.dtd">
<svg xmlns="http://www.w3.org/2000/svg" xmlns:xlink="http://www.w3.org/1999/xlink" version="1.1" width="1080" height="1080" viewBox="0 0 1080 1080" xml:space="preserve">
<desc>Created with Fabric.js 5.2.4</desc>
<defs>
</defs>
<rect x="0" y="0" width="100%" height="100%" fill="transparent"></rect>
<g transform="matrix(1 0 0 1 540 540)" id="b610dd37-b9f1-4d70-b886-34368ac2ef47"  >
<rect style="stroke: none; stroke-width: 1; stroke-dasharray: none; stroke-linecap: butt; stroke-dashoffset: 0; stroke-linejoin: miter; stroke-miterlimit: 4; fill: rgb(255,255,255); fill-rule: nonzero; opacity: 1; visibility: hidden;" vector-effect="non-scaling-stroke"  x="-540" y="-540" rx="0" ry="0" width="1080" height="1080" />
</g>
<g transform="matrix(1 0 0 1 540 540)" id="a9524de5-6473-4bfc-b771-edc54cb0d509"  >
</g>
<g transform="matrix(1 0 0 1 2015.36 210.21)"  >
<g style="" vector-effect="non-scaling-stroke"   >
		<g transform="matrix(28.57 0 0 28.57 1.32 -5.14)"  >
<path style="stroke: none; stroke-width: 1; stroke-dasharray: none; stroke-linecap: butt; stroke-dashoffset: 0; stroke-linejoin: miter; stroke-miterlimit: 4; fill: rgb(190,18,60); fill-rule: evenodd; opacity: 1;" vector-effect="non-scaling-stroke"  transform=" translate(-14.05, -13.82)" d="M 17.7469 15.4149 C 17.9855 14.8742 18.1188 14.2724 18.1188 14.0016 C 18.1188 11.6544 16.2952 9.7513 14.046 9.7513 C 11.7969 9.7513 9.97332 11.6544 9.97332 14.0016 C 9.97332 16.3487 12.0097 17.8886 14.046 17.8886 C 15.3486 17.8886 16.508 17.2515 17.2517 16.2595 C 17.4466 16.0001 17.6137 15.7168 17.7469 15.4149 Z M 14.046 15.7635 C 14.5551 15.7635 15.0205 15.5684 15.3784 15.2457 C 15.81 14.8566 16 14.2807 16 14.0016 C 16 12.828 15.1716 11.8764 14.046 11.8764 C 12.9205 11.8764 12 12.8264 12 14 C 12 14.8104 12.9205 15.7635 14.046 15.7635 Z" stroke-linecap="round" />
</g>
		<g transform="matrix(28.57 0 0 28.57 0 0)"  >
<path style="stroke: none; stroke-width: 1; stroke-dasharray: none; stroke-linecap: butt; stroke-dashoffset: 0; stroke-linejoin: miter; stroke-miterlimit: 4; fill: rgb(190,18,60); fill-rule: evenodd; opacity: 1;" vector-effect="non-scaling-stroke"  transform=" translate(-14, -14)" d="M 1.09212 14.2724 C 1.07621 14.2527 1.10803 14.2931 1.09212 14.2724 C 0.96764 14.1021 0.970773 13.8996 1.09268 13.7273 C 1.10161 13.7147 1.11071 13.7016 1.11993 13.6882 C 4.781 8.34319 9.32105 5.5 14.0142 5.5 C 18.7025 5.5 23.2385 8.33554 26.8956 13.6698 C 26.965 13.771 27 13.875 27 13.9995 C 27 14.1301 26.9593 14.2399 26.8863 14.3461 C 23.2302 19.6702 18.6982 22.5 14.0142 22.5 C 9.30912 22.5 4.75717 19.6433 1.09212 14.2724 Z M 3.93909 13.3525 C 3.6381 13.7267 3.6381 14.2722 3.93908 14.6465 C 7.07417 18.5443 10.6042 20.3749 14.0142 20.3749 C 17.4243 20.3749 20.9543 18.5443 24.0894 14.6465 C 24.3904 14.2722 24.3904 13.7267 24.0894 13.3525 C 20.9543 9.45475 17.4243 7.62513 14.0142 7.62513 C 10.6042 7.62513 7.07417 9.45475 3.93909 13.3525 Z" stroke-linecap="round" />
</g>
</g>
</g>
<g transform="matrix(NaN NaN NaN NaN 0 0)"  >
<g style=""   >
</g>
</g>
<g transform="matrix(NaN NaN NaN NaN 0 0)"  >
<g style=""   >
</g>
</g>
<g transform="matrix(1 0 0 1 524.57 447.43)"  >
<g style="" vector-effect="non-scaling-stroke"   >
		<g transform="matrix(28.57 0 0 28.57 -50.87 0)"  >
<path style="stroke: none; stroke-width: 1; stroke-dasharray: none; stroke-linecap: butt; stroke-dashoffset: 0; stroke-linejoin: miter; stroke-miterlimit: 4; fill: rgb(190,18,60); fill-rule: evenodd; opacity: 1;" vector-effect="non-scaling-stroke"  transform=" translate(-12.22, -13.94)" d="M 22.6928 1.55018 C 22.3102 1.32626 21.8209 1.45915 21.6 1.84698 L 19.1533 6.14375 C 17.4864 5.36351 15.7609 4.96457 14.0142 4.96457 C 9.32104 4.96457 4.781 7.84644 1.11993 13.2641 L 1.10541 13.2854 L 1.09271 13.3038 C 0.970762 13.4784 0.967649 13.6837 1.0921 13.8563 C 3.79364 17.8691 6.97705 20.4972 10.3484 21.6018 L 8.39935 25.0222 C 8.1784 25.4101 8.30951 25.906 8.69214 26.1299 L 9.03857 26.3326 C 9.4212 26.5565 9.91046 26.4237 10.1314 26.0358 L 23.332 2.86058 C 23.553 2.47275 23.4219 1.97684 23.0392 1.75291 L 22.6928 1.55018 Z M 18.092 8.00705 C 16.7353 7.40974 15.3654 7.1186 14.0142 7.1186 C 10.6042 7.1186 7.07416 8.97311 3.93908 12.9239 C 3.63812 13.3032 3.63812 13.8561 3.93908 14.2354 C 6.28912 17.197 8.86102 18.9811 11.438 19.689 L 12.7855 17.3232 C 11.2462 16.8322 9.97333 15.4627 9.97333 13.5818 C 9.97333 11.2026 11.7969 9.27368 14.046 9.27368 C 15.0842 9.27368 16.0317 9.68468 16.7511 10.3612 L 18.092 8.00705 Z M 15.639 12.3137 C 15.2926 11.7767 14.7231 11.4277 14.046 11.4277 C 12.9205 11.4277 12 12.3906 12 13.5802 C 12 14.3664 12.8432 15.2851 13.9024 15.3624 L 15.639 12.3137 Z" stroke-linecap="round" />
</g>
		<g transform="matrix(28.57 0 0 28.57 195.53 37.7)"  >
<path style="stroke: none; stroke-width: 1; stroke-dasharray: none; stroke-linecap: butt; stroke-dashoffset: 0; stroke-linejoin: miter; stroke-miterlimit: 4; fill: rgb(190,18,60); fill-rule: nonzero; opacity: 1;" vector-effect="non-scaling-stroke"  transform=" translate(-20.84, -15.26)" d="M 14.6873 22.1761 C 19.1311 21.9148 23.4056 19.0687 26.8864 13.931 C 26.9593 13.8234 27 13.7121 27 13.5797 C 27 13.4535 26.965 13.3481 26.8956 13.2455 C 25.5579 11.2677 24.1025 9.62885 22.5652 8.34557 L 21.506 10.2052 C 22.3887 10.9653 23.2531 11.87 24.0894 12.9239 C 24.3904 13.3032 24.3904 13.8561 24.0894 14.2354 C 21.5676 17.4135 18.7903 19.2357 16.0254 19.827 L 14.6873 22.1761 Z" stroke-linecap="round" />
</g>
</g>
</g>
<g transform="matrix(NaN NaN NaN NaN 0 0)"  >
<g style=""   >
</g>
</g>
<g transform="matrix(NaN NaN NaN NaN 0 0)"  >
<g style=""   >
</g>
</g>
</svg>