<?xml version="1.0" encoding="UTF-8" standalone="no" ?>
<!DOCTYPE svg PUBLIC "-//W3C//DTD SVG 1.1//EN" "http://www.w3.org/Graphics/SVG/1.1/DTD/svg11.dtd">
<svg xmlns="http://www.w3.org/2000/svg" xmlns:xlink="http://www.w3.org/1999/xlink" version="1.1" width="1080" height="1080" viewBox="0 0 1080 1080" xml:space="preserve">
<desc>Created with Fabric.js 5.2.4</desc>
<defs>
</defs>
<g transform="matrix(1 0 0 1 540 540)" id="b610dd37-b9f1-4d70-b886-34368ac2ef47"  >
<rect style="stroke: none; stroke-width: 1; stroke-dasharray: none; stroke-linecap: butt; stroke-dashoffset: 0; stroke-linejoin: miter; stroke-miterlimit: 4; fill: rgb(255,255,255); fill-rule: nonzero; opacity: 1; visibility: hidden;" vector-effect="non-scaling-stroke"  x="-540" y="-540" rx="0" ry="0" width="1080" height="1080" />
</g>
<g transform="matrix(1 0 0 1 540 540)" id="a9524de5-6473-4bfc-b771-edc54cb0d509"  >
</g>
<g transform="matrix(1 0 0 1 540 540)"  >
<g style="" vector-effect="non-scaling-stroke"   >
		<g transform="matrix(28.57 0 0 28.57 1.32 -5.14)"  >
<path style="stroke: none; stroke-width: 1; stroke-dasharray: none; stroke-linecap: butt; stroke-dashoffset: 0; stroke-linejoin: miter; stroke-miterlimit: 4; fill: rgb(190,18,60); fill-rule: evenodd; opacity: 1;" vector-effect="non-scaling-stroke"  transform=" translate(-14.05, -13.82)" d="M 17.7469 15.4149 C 17.9855 14.8742 18.1188 14.2724 18.1188 14.0016 C 18.1188 11.6544 16.2952 9.7513 14.046 9.7513 C 11.7969 9.7513 9.97332 11.6544 9.97332 14.0016 C 9.97332 16.3487 12.0097 17.8886 14.046 17.8886 C 15.3486 17.8886 16.508 17.2515 17.2517 16.2595 C 17.4466 16.0001 17.6137 15.7168 17.7469 15.4149 Z M 14.046 15.7635 C 14.5551 15.7635 15.0205 15.5684 15.3784 15.2457 C 15.81 14.8566 16 14.2807 16 14.0016 C 16 12.828 15.1716 11.8764 14.046 11.8764 C 12.9205 11.8764 12 12.8264 12 14 C 12 14.8104 12.9205 15.7635 14.046 15.7635 Z" stroke-linecap="round" />
</g>
		<g transform="matrix(28.57 0 0 28.57 0 0)"  >
<path style="stroke: none; stroke-width: 1; stroke-dasharray: none; stroke-linecap: butt; stroke-dashoffset: 0; stroke-linejoin: miter; stroke-miterlimit: 4; fill: rgb(190,18,60); fill-rule: evenodd; opacity: 1;" vector-effect="non-scaling-stroke"  transform=" translate(-14, -14)" d="M 1.09212 14.2724 C 1.07621 14.2527 1.10803 14.2931 1.09212 14.2724 C 0.96764 14.1021 0.970773 13.8996 1.09268 13.7273 C 1.10161 13.7147 1.11071 13.7016 1.11993 13.6882 C 4.781 8.34319 9.32105 5.5 14.0142 5.5 C 18.7025 5.5 23.2385 8.33554 26.8956 13.6698 C 26.965 13.771 27 13.875 27 13.9995 C 27 14.1301 26.9593 14.2399 26.8863 14.3461 C 23.2302 19.6702 18.6982 22.5 14.0142 22.5 C 9.30912 22.5 4.75717 19.6433 1.09212 14.2724 Z M 3.93909 13.3525 C 3.6381 13.7267 3.6381 14.2722 3.93908 14.6465 C 7.07417 18.5443 10.6042 20.3749 14.0142 20.3749 C 17.4243 20.3749 20.9543 18.5443 24.0894 14.6465 C 24.3904 14.2722 24.3904 13.7267 24.0894 13.3525 C 20.9543 9.45475 17.4243 7.62513 14.0142 7.62513 C 10.6042 7.62513 7.07417 9.45475 3.93909 13.3525 Z" stroke-linecap="round" />
</g>
</g>
</g>
<g transform="matrix(NaN NaN NaN NaN 0 0)"  >
<g style=""   >
</g>
</g>
<g transform="matrix(NaN NaN NaN NaN 0 0)"  >
<g style=""   >
</g>
</g>
</svg>